<?xml version="1.0" encoding="UTF-8" standalone="no"?><!DOCTYPE svg PUBLIC "-//W3C//DTD SVG 1.1//EN" "http://www.w3.org/Graphics/SVG/1.1/DTD/svg11.dtd"><svg width="100%" height="100%" viewBox="0 0 720 720" version="1.1" xmlns="http://www.w3.org/2000/svg" xmlns:xlink="http://www.w3.org/1999/xlink" xml:space="preserve" xmlns:serif="http://www.serif.com/" style="fill-rule:evenodd;clip-rule:evenodd;stroke-linecap:round;stroke-linejoin:round;stroke-miterlimit:1.5;"><rect id="Mesa-de-trabajo2" serif:id="Mesa de trabajo2" x="0" y="0" width="720" height="720" style="fill:none;"/><g id="Mesa-de-trabajo21" serif:id="Mesa de trabajo2"><g><path d="M371.376,122.487l342.584,0l-160.25,160.25l0,-40.994l-84.059,0c-21.693,-52.344 -55.234,-91.205 -98.276,-119.256Z" style="fill:#dbf079;"/><path d="M5.696,122.487l0,119.278l234.539,0c53.522,2.472 80.032,23.217 85.728,53.378c7.012,37.13 -77.941,192.353 -156.359,353.156l128.322,0c82.486,-163.778 144.326,-282.407 149.35,-315.954c8.078,-53.938 -6.668,-113.608 -56.613,-156.898c-43.913,-38.062 -84.483,-49.318 -146.482,-52.754c-2.46,-0.135 -4.923,-0.203 -7.386,-0.203c-28.965,-0.004 -231.1,-0.004 -231.1,-0.004Z" style="fill:none;stroke:#dbf079;stroke-width:5.37px;"/></g></g></svg>