<svg xmlns="http://www.w3.org/2000/svg" xml:space="preserve" style="fill-rule:evenodd;clip-rule:evenodd;stroke-linejoin:round;stroke-miterlimit:2" viewBox="0 0 720 720"><path d="M0 0h720v720H0z"/><path d="M360 0c198.689 0 360 161.311 360 360S558.689 720 360 720 0 558.689 0 360 161.311 0 360 0Zm0 6.049C164.649 6.049 6.049 164.649 6.049 360c0 195.351 158.6 353.951 353.951 353.951 195.351 0 353.951-158.6 353.951-353.951 0-195.351-158.6-353.951-353.951-353.951Z" style="fill:#989a8d;stroke:#000;stroke-width:.24px"/><path d="M369.25 170.89h279.512L518.015 301.637V268.19h-68.583c-17.699-42.707-45.065-74.413-80.182-97.3Z" style="fill:#dbf079"/><path d="M70.894 170.89v97.318h191.358c43.669 2.017 65.298 18.943 69.945 43.551 5.721 30.294-63.592 156.939-127.572 288.137h104.697c67.3-133.625 117.755-230.414 121.854-257.784 6.591-44.007-5.441-92.692-46.19-128.012-35.6-30.857-68.507-40.12-118.548-42.987a134.592 134.592 0 0 0-7.65-.217c-25.873-.006-187.893-.006-187.893-.006Z" style="fill:#989a8d"/></svg>