<?xml version="1.0" encoding="UTF-8" standalone="no"?><!DOCTYPE svg PUBLIC "-//W3C//DTD SVG 1.1//EN" "http://www.w3.org/Graphics/SVG/1.1/DTD/svg11.dtd"><svg width="100%" height="100%" viewBox="0 0 720 720" version="1.1" xmlns="http://www.w3.org/2000/svg" xmlns:xlink="http://www.w3.org/1999/xlink" xml:space="preserve" xmlns:serif="http://www.serif.com/" style="fill-rule:evenodd;clip-rule:evenodd;stroke-linejoin:round;stroke-miterlimit:2;"><g id="Capa1"><rect x="0" y="-0" width="720" height="720"/></g><path d="M360,-0c198.689,0 360,161.311 360,360c0,198.689 -161.311,360 -360,360c-198.689,0 -360,-161.311 -360,-360c-0,-198.689 161.311,-360 360,-360Zm0,6.049c-195.351,0 -353.951,158.6 -353.951,353.951c-0,195.351 158.6,353.951 353.951,353.951c195.351,0 353.951,-158.6 353.951,-353.951c0,-195.351 -158.6,-353.951 -353.951,-353.951Z" style="fill:#989a8d;stroke:#000;stroke-width:0.24px;"/><path d="M369.25,170.89l279.512,0l-130.747,130.747l0,-33.447l-68.583,0c-17.699,-42.707 -45.065,-74.413 -80.182,-97.3Z" style="fill:#dbf079;"/><path d="M70.894,170.89l0,97.318l191.358,0c43.669,2.017 65.298,18.943 69.945,43.551c5.721,30.294 -63.592,156.939 -127.572,288.137l104.697,0c67.3,-133.625 117.755,-230.414 121.854,-257.784c6.591,-44.007 -5.441,-92.692 -46.19,-128.012c-35.6,-30.857 -68.507,-40.12 -118.548,-42.987c-2.547,-0.145 -5.098,-0.217 -7.65,-0.217c-25.873,-0.006 -187.893,-0.006 -187.893,-0.006Z" style="fill:#989a8d;"/></svg>