<svg xmlns="http://www.w3.org/2000/svg" xml:space="preserve" style="fill-rule:evenodd;clip-rule:evenodd;stroke-linejoin:round;stroke-miterlimit:2" viewBox="0 0 720 720"><path d="M0 0h720v720H0z" style="fill:none"/><path d="M371.561 118.258h348.094L556.828 281.085v-41.653h-85.411c-22.042-53.186-56.123-92.672-99.856-121.174ZM0 118.258v121.197h238.311c54.383 2.512 81.32 23.591 87.107 54.236 7.125 37.727-79.195 195.447-158.874 358.836H296.93c83.813-166.412 146.647-286.949 151.752-321.035 8.208-54.805-6.775-115.435-57.523-159.422-44.638-38.691-85.877-50.121-148.917-53.606a135.147 135.147 0 0 0-7.369-.202C205.651 118.258 0 118.258 0 118.258Z" style="fill:#fff"/></svg>